<svg width="20" height="16" viewBox="0 0 20 16" fill="none" xmlns="http://www.w3.org/2000/svg">
<rect x="0.5" y="0.5" width="19" height="15" rx="1.5" stroke="#FF4F4F"/>
<path d="M6.18359 9.68164H3.87207L3.43262 11H2.03076L4.4126 4.60156H5.63428L8.0293 11H6.62744L6.18359 9.68164ZM4.22803 8.61377H5.82764L5.02344 6.21875L4.22803 8.61377ZM8.3457 8.5874C8.3457 7.84619 8.51123 7.25586 8.84229 6.81641C9.17627 6.37695 9.63184 6.15723 10.209 6.15723C10.6719 6.15723 11.0542 6.33008 11.356 6.67578V4.25H12.6304V11H11.4834L11.4219 10.4946C11.1055 10.8901 10.6982 11.0879 10.2002 11.0879C9.64062 11.0879 9.19092 10.8682 8.85107 10.4287C8.51416 9.98633 8.3457 9.37256 8.3457 8.5874ZM9.61572 8.67969C9.61572 9.125 9.69336 9.46631 9.84863 9.70361C10.0039 9.94092 10.2295 10.0596 10.5254 10.0596C10.918 10.0596 11.1948 9.89404 11.356 9.56299V7.68652C11.1978 7.35547 10.9238 7.18994 10.5342 7.18994C9.92188 7.18994 9.61572 7.68652 9.61572 8.67969ZM16.1899 9.68604C16.1899 9.53076 16.1123 9.40918 15.957 9.32129C15.8047 9.23047 15.5586 9.1499 15.2188 9.07959C14.0879 8.84229 13.5225 8.36182 13.5225 7.63818C13.5225 7.21631 13.6968 6.86475 14.0454 6.5835C14.397 6.29932 14.8555 6.15723 15.4209 6.15723C16.0244 6.15723 16.5063 6.29932 16.8667 6.5835C17.23 6.86768 17.4116 7.23682 17.4116 7.69092H16.1416C16.1416 7.50928 16.083 7.35986 15.9658 7.24268C15.8486 7.12256 15.6655 7.0625 15.4165 7.0625C15.2026 7.0625 15.0371 7.11084 14.9199 7.20752C14.8027 7.3042 14.7441 7.42725 14.7441 7.57666C14.7441 7.71729 14.8101 7.83154 14.9419 7.91943C15.0767 8.00439 15.3022 8.0791 15.6187 8.14355C15.9351 8.20508 16.2017 8.27539 16.4185 8.35449C17.0894 8.60059 17.4248 9.02686 17.4248 9.6333C17.4248 10.0669 17.2388 10.4185 16.8667 10.688C16.4946 10.9546 16.0142 11.0879 15.4253 11.0879C15.0269 11.0879 14.6724 11.0176 14.3618 10.877C14.0542 10.7334 13.8125 10.5386 13.6367 10.2925C13.4609 10.0435 13.373 9.77539 13.373 9.48828H14.5771C14.5889 9.71387 14.6724 9.88672 14.8276 10.0068C14.9829 10.127 15.1909 10.187 15.4517 10.187C15.6948 10.187 15.8779 10.1416 16.001 10.0508C16.127 9.95703 16.1899 9.83545 16.1899 9.68604Z" fill="#FF4F4F"/>
</svg>
