<svg width="81" height="61" viewBox="0 0 81 61" fill="none" xmlns="http://www.w3.org/2000/svg">
<path d="M2.70117 8.10547V11H0.644531V2.46875H4.04883C4.70117 2.46875 5.27734 2.58984 5.77734 2.83203C6.28125 3.07031 6.66992 3.41211 6.94336 3.85742C7.2207 4.29883 7.35938 4.80078 7.35938 5.36328C7.35938 6.19531 7.06055 6.86133 6.46289 7.36133C5.86914 7.85742 5.05273 8.10547 4.01367 8.10547H2.70117ZM2.70117 6.51758H4.04883C4.44727 6.51758 4.75 6.41797 4.95703 6.21875C5.16797 6.01953 5.27344 5.73828 5.27344 5.375C5.27344 4.97656 5.16602 4.6582 4.95117 4.41992C4.73633 4.18164 4.44336 4.06055 4.07227 4.05664H2.70117V6.51758ZM12.2637 9.40625H9.44531L8.95312 11H6.75586L9.88477 2.46875H11.8184L14.9707 11H12.7617L12.2637 9.40625ZM9.9375 7.81836H11.7715L10.8516 4.85938L9.9375 7.81836ZM18.498 7.82422L17.6543 8.75V11H15.5977V2.46875H17.6543V6.23047L18.3691 5.14648L20.209 2.46875H22.752L19.8691 6.24219L22.752 11H20.3145L18.498 7.82422ZM28.5645 7.38477H25.3301V9.41797H29.1504V11H23.2734V2.46875H29.1621V4.05664H25.3301V5.85547H28.5645V7.38477Z" fill="#535353"/>
<path d="M22.7344 39.4375H7.24219L3.72656 49H0.703125L13.6172 14.875H16.3594L29.2734 49H26.2734L22.7344 39.4375ZM8.13281 36.9766H21.8203L14.9766 18.3906L8.13281 36.9766ZM32.5312 36.0859C32.5312 32.1484 33.4062 29.0156 35.1562 26.6875C36.9219 24.3438 39.3125 23.1719 42.3281 23.1719C45.75 23.1719 48.3594 24.5234 50.1562 27.2266V13H52.9453V49H50.3203L50.2031 45.625C48.4062 48.1875 45.7656 49.4688 42.2812 49.4688C39.3594 49.4688 37 48.2969 35.2031 45.9531C33.4219 43.5938 32.5312 40.4141 32.5312 36.4141V36.0859ZM35.3672 36.5781C35.3672 39.8125 36.0156 42.3672 37.3125 44.2422C38.6094 46.1016 40.4375 47.0312 42.7969 47.0312C46.25 47.0312 48.7031 45.5078 50.1562 42.4609V30.5547C48.7031 27.2578 46.2656 25.6094 42.8438 25.6094C40.4844 25.6094 38.6484 26.5391 37.3359 28.3984C36.0234 30.2422 35.3672 32.9688 35.3672 36.5781ZM75.5156 42.5547C75.5156 41.1641 74.9531 40.0469 73.8281 39.2031C72.7188 38.3594 71.0391 37.7031 68.7891 37.2344C66.5391 36.75 64.7891 36.2031 63.5391 35.5938C62.3047 34.9688 61.3828 34.2109 60.7734 33.3203C60.1797 32.4297 59.8828 31.3516 59.8828 30.0859C59.8828 28.0859 60.7188 26.4375 62.3906 25.1406C64.0625 23.8281 66.2031 23.1719 68.8125 23.1719C71.6406 23.1719 73.9062 23.875 75.6094 25.2812C77.3281 26.6719 78.1875 28.4922 78.1875 30.7422H75.375C75.375 29.2578 74.75 28.0234 73.5 27.0391C72.2656 26.0547 70.7031 25.5625 68.8125 25.5625C66.9688 25.5625 65.4844 25.9766 64.3594 26.8047C63.25 27.6172 62.6953 28.6797 62.6953 29.9922C62.6953 31.2578 63.1562 32.2422 64.0781 32.9453C65.0156 33.6328 66.7109 34.2656 69.1641 34.8438C71.6328 35.4219 73.4766 36.0391 74.6953 36.6953C75.9297 37.3516 76.8438 38.1406 77.4375 39.0625C78.0312 39.9844 78.3281 41.1016 78.3281 42.4141C78.3281 44.5547 77.4609 46.2656 75.7266 47.5469C74.0078 48.8281 71.7578 49.4688 68.9766 49.4688C66.0234 49.4688 63.625 48.7578 61.7812 47.3359C59.9531 45.8984 59.0391 44.0859 59.0391 41.8984H61.8516C61.9609 43.5391 62.6484 44.8203 63.9141 45.7422C65.1953 46.6484 66.8828 47.1016 68.9766 47.1016C70.9297 47.1016 72.5078 46.6719 73.7109 45.8125C74.9141 44.9531 75.5156 43.8672 75.5156 42.5547Z" fill="#535353"/>
</svg>
