<svg width="193" height="116" viewBox="0 0 193 116" fill="none" xmlns="http://www.w3.org/2000/svg">
<g clip-path="url(#clip0)">
<path d="M193 90.5218C193.004 91.2987 192.699 92.0454 192.151 92.5976C191.604 93.1499 190.859 93.4624 190.081 93.4665H61.6463C61.261 93.4644 60.8798 93.3867 60.5245 93.2376C60.1693 93.0886 59.8469 92.8711 59.5758 92.5977C59.3048 92.3243 59.0903 92.0002 58.9447 91.6441C58.7991 91.2879 58.7252 90.9066 58.7272 90.5219V2.94464C58.7231 2.16774 59.0284 1.42104 59.5758 0.868812C60.1232 0.316585 60.868 0.00406286 61.6462 0H190.081C190.466 0.002001 190.847 0.0797523 191.203 0.228813C191.558 0.377874 191.88 0.595326 192.151 0.868753C192.422 1.14218 192.637 1.46623 192.782 1.8224C192.928 2.17857 193.002 2.55988 193 2.94456V2.94464V90.5218Z" fill="#E6E6E6"/>
<path d="M191.485 89.0877C191.485 89.8428 191.184 90.567 190.65 91.101C190.115 91.635 189.389 91.9349 188.633 91.9349H63.1824C62.426 91.9349 61.7005 91.635 61.1656 91.101C60.6307 90.567 60.3302 89.8428 60.3302 89.0877V4.41887C60.3302 3.66373 60.6307 2.93953 61.1656 2.40556C61.7005 1.8716 62.426 1.57162 63.1824 1.57162H188.638C189.394 1.57314 190.118 1.87379 190.652 2.40759C191.185 2.94138 191.485 3.66472 191.485 4.41887V89.0877Z" fill="white"/>
<path d="M67.0351 5.24763H184.914C185.363 5.24763 185.794 5.42569 186.111 5.74263C186.429 6.05957 186.607 6.48943 186.607 6.93765V86.2404C186.607 86.6886 186.429 87.1185 186.111 87.4354C185.794 87.7524 185.363 87.9304 184.914 87.9304H67.0351C66.5861 87.9304 66.1554 87.7524 65.838 87.4354C65.5205 87.1185 65.3421 86.6886 65.3421 86.2404V6.93765C65.3421 6.48943 65.5205 6.05957 65.838 5.74263C66.1554 5.42569 66.5861 5.24763 67.0351 5.24763Z" fill="#E6E6E6"/>
<path d="M68.5271 7.14963H183.294C183.743 7.14963 184.173 7.32768 184.491 7.64462C184.808 7.96156 184.987 8.39142 184.987 8.83964V83.9107C184.987 84.3589 184.808 84.7888 184.491 85.1057C184.173 85.4227 183.743 85.6007 183.294 85.6007H68.5271C68.0781 85.6007 67.6475 85.4227 67.33 85.1057C67.0126 84.7888 66.8342 84.3589 66.8342 83.9107V8.83964C66.8342 8.39142 67.0126 7.96156 67.33 7.64462C67.6475 7.32768 68.0781 7.14963 68.5271 7.14963Z" fill="white"/>
<path d="M149.56 59.3C149.108 59.2997 148.662 59.2047 148.249 59.0212C148.153 58.9786 148.062 58.9267 147.976 58.8661L139.635 53.0052C139.212 52.708 138.867 52.3136 138.629 51.8552C138.39 51.3969 138.266 50.8881 138.266 50.3717V42.3786C138.266 41.8622 138.39 41.3534 138.629 40.8951C138.867 40.4368 139.212 40.0424 139.635 39.7451L147.976 33.8842C148.062 33.8236 148.153 33.7717 148.249 33.7292C148.741 33.5111 149.279 33.4191 149.815 33.4614C150.351 33.5037 150.868 33.6791 151.318 33.9715C151.769 34.264 152.14 34.6643 152.396 35.136C152.653 35.6077 152.787 36.136 152.787 36.6727V56.0776C152.787 56.932 152.447 57.7514 151.842 58.3555C151.237 58.9596 150.416 59.299 149.56 59.299L149.56 59.3Z" fill="#3F3D56"/>
<path d="M130.894 60.8715H107.631C102.885 60.8676 99.0386 57.805 99.0337 54.026V38.7244C99.0386 34.9453 102.885 31.8828 107.631 31.8789H130.954C135.667 31.8833 139.485 34.9239 139.491 38.676V54.026C139.486 57.805 135.64 60.8676 130.894 60.8715Z" fill="#3F3D56"/>
<path d="M172.332 80.7734C176.153 80.7734 179.251 77.6812 179.251 73.8668C179.251 70.0524 176.153 66.9602 172.332 66.9602C168.511 66.9602 165.414 70.0524 165.414 73.8668C165.414 77.6812 168.511 80.7734 172.332 80.7734Z" fill="#E6E6E6"/>
<path d="M175.926 73.743L170.411 70.5645C170.389 70.552 170.365 70.5454 170.34 70.5454C170.314 70.5454 170.29 70.552 170.268 70.5645C170.246 70.5771 170.228 70.5951 170.215 70.6168C170.203 70.6386 170.196 70.6632 170.196 70.6883V77.0453C170.196 77.0704 170.203 77.095 170.215 77.1168C170.228 77.1385 170.246 77.1565 170.268 77.1691C170.29 77.1816 170.314 77.1882 170.34 77.1882C170.365 77.1882 170.389 77.1816 170.411 77.1691L175.926 73.9906C175.948 73.9781 175.966 73.96 175.978 73.9383C175.991 73.9165 175.998 73.8919 175.998 73.8668C175.998 73.8417 175.991 73.817 175.978 73.7953C175.966 73.7736 175.948 73.7555 175.926 73.743L170.411 70.5645C170.389 70.552 170.365 70.5454 170.34 70.5454C170.314 70.5454 170.29 70.552 170.268 70.5645C170.246 70.5771 170.228 70.5951 170.215 70.6168C170.203 70.6386 170.196 70.6632 170.196 70.6883V77.0453C170.196 77.0704 170.203 77.095 170.215 77.1168C170.228 77.1385 170.246 77.1565 170.268 77.1691C170.29 77.1816 170.314 77.1882 170.34 77.1882C170.365 77.1882 170.389 77.1816 170.411 77.1691L175.926 73.9906C175.948 73.9781 175.966 73.96 175.978 73.9383C175.991 73.9165 175.998 73.8919 175.998 73.8668C175.998 73.8417 175.991 73.817 175.978 73.7953C175.966 73.7736 175.948 73.7555 175.926 73.743Z" fill="white"/>
<path d="M163.349 101.025C163.354 101.802 163.048 102.548 162.501 103.101C161.953 103.653 161.209 103.965 160.43 103.969H31.9958C31.6105 103.967 31.2293 103.89 30.874 103.741C30.5188 103.591 30.1964 103.374 29.9253 103.101C29.6543 102.827 29.4398 102.503 29.2942 102.147C29.1486 101.791 29.0747 101.409 29.0767 101.025V13.4476C29.0726 12.6707 29.3779 11.924 29.9253 11.3717C30.4727 10.8195 31.2175 10.507 31.9957 10.5029H160.43C160.816 10.5049 161.197 10.5827 161.552 10.7317C161.907 10.8808 162.23 11.0982 162.501 11.3717C162.772 11.6451 162.986 11.9691 163.132 12.3253C163.278 12.6815 163.351 13.0628 163.349 13.4475V13.4476V101.025Z" fill="#E6E6E6"/>
<path d="M161.834 99.5906C161.834 100.346 161.534 101.07 160.999 101.604C160.464 102.138 159.739 102.438 158.982 102.438H33.5319C32.7754 102.438 32.05 102.138 31.5151 101.604C30.9802 101.07 30.6797 100.346 30.6797 99.5906V14.9218C30.6797 14.1667 30.9802 13.4425 31.5151 12.9085C32.05 12.3745 32.7754 12.0746 33.5319 12.0746H158.988C159.743 12.0761 160.467 12.3767 161.001 12.9105C161.535 13.4443 161.834 14.1677 161.834 14.9218V99.5906Z" fill="white"/>
<path d="M37.3845 15.7506H155.263C155.712 15.7506 156.143 15.9286 156.461 16.2456C156.778 16.5625 156.956 16.9924 156.956 17.4406V96.7434C156.956 97.1916 156.778 97.6215 156.461 97.9384C156.143 98.2553 155.712 98.4334 155.263 98.4334H37.3845C36.9355 98.4334 36.5049 98.2553 36.1874 97.9384C35.87 97.6215 35.6916 97.1916 35.6916 96.7434V17.4406C35.6916 16.9924 35.87 16.5625 36.1874 16.2456C36.5049 15.9286 36.9355 15.7506 37.3845 15.7506Z" fill="#E6E6E6"/>
<path d="M38.8766 17.6525H153.643C154.092 17.6525 154.523 17.8306 154.84 18.1475C155.158 18.4645 155.336 18.8943 155.336 19.3426V94.4136C155.336 94.8618 155.158 95.2917 154.84 95.6086C154.523 95.9256 154.092 96.1036 153.643 96.1036H38.8766C38.4276 96.1036 37.997 95.9256 37.6795 95.6086C37.362 95.2917 37.1837 94.8618 37.1837 94.4136V19.3426C37.1837 18.8943 37.362 18.4645 37.6795 18.1475C37.997 17.8306 38.4276 17.6525 38.8766 17.6525Z" fill="white"/>
<path d="M119.91 69.803C119.458 69.8026 119.011 69.7076 118.599 69.5241C118.503 69.4816 118.411 69.4296 118.325 69.3691L109.985 63.5081C109.562 63.2109 109.216 62.8165 108.978 62.3582C108.74 61.8998 108.615 61.391 108.615 60.8747V52.8816C108.615 52.3652 108.74 51.8564 108.978 51.398C109.216 50.9397 109.562 50.5453 109.985 50.2481L118.325 44.3871C118.411 44.3266 118.503 44.2746 118.599 44.2321C119.09 44.014 119.628 43.922 120.164 43.9643C120.7 44.0066 121.217 44.182 121.668 44.4745C122.119 44.7669 122.489 45.1672 122.746 45.6389C123.002 46.1107 123.137 46.6389 123.137 47.1757V66.5806C123.137 67.4349 122.797 68.2543 122.192 68.8584C121.586 69.4626 120.766 69.802 119.91 69.802L119.91 69.803Z" fill="#3F3D56"/>
<path d="M101.243 71.3744H77.9803C73.2343 71.3705 69.3881 68.308 69.3832 64.5289V49.2273C69.3881 45.4482 73.2343 42.3857 77.9803 42.3818H101.304C106.016 42.3862 109.835 45.4268 109.84 49.179V64.5289C109.835 68.308 105.989 71.3705 101.243 71.3744Z" fill="#3F3D56"/>
<path d="M142.682 91.2763C146.503 91.2763 149.601 88.1841 149.601 84.3697C149.601 80.5553 146.503 77.4631 142.682 77.4631C138.861 77.4631 135.763 80.5553 135.763 84.3697C135.763 88.1841 138.861 91.2763 142.682 91.2763Z" fill="#E6E6E6"/>
<path d="M146.275 84.2459L140.761 81.0674C140.739 81.0549 140.714 81.0483 140.689 81.0483C140.664 81.0483 140.639 81.0549 140.617 81.0674C140.596 81.08 140.578 81.098 140.565 81.1198C140.552 81.1415 140.546 81.1661 140.546 81.1912V87.5482C140.546 87.5733 140.552 87.598 140.565 87.6197C140.578 87.6414 140.596 87.6595 140.617 87.672C140.639 87.6846 140.664 87.6912 140.689 87.6912C140.714 87.6912 140.739 87.6846 140.761 87.672L146.275 84.4935C146.297 84.481 146.315 84.4629 146.328 84.4412C146.34 84.4195 146.347 84.3948 146.347 84.3697C146.347 84.3446 146.34 84.32 146.328 84.2983C146.315 84.2765 146.297 84.2585 146.275 84.2459L140.761 81.0674C140.739 81.0549 140.714 81.0483 140.689 81.0483C140.664 81.0483 140.639 81.0549 140.617 81.0674C140.596 81.08 140.578 81.098 140.565 81.1198C140.552 81.1415 140.546 81.1662 140.546 81.1913V87.5482C140.546 87.5733 140.552 87.598 140.565 87.6197C140.578 87.6414 140.596 87.6595 140.617 87.672C140.639 87.6846 140.664 87.6912 140.689 87.6912C140.714 87.6912 140.739 87.6846 140.761 87.672L146.275 84.4935C146.297 84.481 146.315 84.4629 146.328 84.4412C146.34 84.4195 146.347 84.3948 146.347 84.3697C146.347 84.3446 146.34 84.32 146.328 84.2982C146.315 84.2765 146.297 84.2585 146.275 84.2459Z" fill="white"/>
<path d="M134.273 113.055C134.277 113.832 133.972 114.579 133.424 115.131C132.877 115.683 132.132 115.996 131.354 116H2.91919C2.53383 115.998 2.15265 115.92 1.7974 115.771C1.44215 115.622 1.11978 115.405 0.848716 115.131C0.577648 114.858 0.363184 114.534 0.217569 114.178C0.0719535 113.821 -0.00196089 113.44 4.44622e-05 113.055V25.4782C-0.00402491 24.7013 0.301231 23.9546 0.84866 23.4024C1.39609 22.8501 2.14085 22.5376 2.9191 22.5335H131.354C131.739 22.5355 132.12 22.6133 132.475 22.7624C132.831 22.9114 133.153 23.1289 133.424 23.4023C133.695 23.6757 133.91 23.9998 134.055 24.3559C134.201 24.7121 134.275 25.0934 134.273 25.4781V25.4782V113.055Z" fill="#E6E6E6"/>
<path d="M132.758 111.621C132.758 112.376 132.457 113.101 131.922 113.635C131.388 114.169 130.662 114.469 129.906 114.469H4.45527C3.69882 114.469 2.97336 114.169 2.43847 113.635C1.90358 113.101 1.60308 112.376 1.60308 111.621V26.9524C1.60308 26.1973 1.90358 25.4731 2.43847 24.9391C2.97336 24.4051 3.69882 24.1052 4.45527 24.1052H129.911C130.667 24.1067 131.391 24.4073 131.924 24.9411C132.458 25.4749 132.758 26.1983 132.758 26.9524V111.621Z" fill="white"/>
<path d="M8.30792 27.7812H126.187C126.636 27.7812 127.066 27.9592 127.384 28.2762C127.701 28.5931 127.88 29.023 127.88 29.4712V108.774C127.88 109.222 127.701 109.652 127.384 109.969C127.066 110.286 126.636 110.464 126.187 110.464H8.30792C7.85892 110.464 7.42831 110.286 7.11082 109.969C6.79333 109.652 6.61497 109.222 6.61497 108.774V29.4712C6.61497 29.023 6.79333 28.5931 7.11082 28.2762C7.42831 27.9592 7.85892 27.7812 8.30792 27.7812Z" fill="#E6E6E6"/>
<path d="M9.80002 29.6832H124.567C124.789 29.6832 125.009 29.7269 125.214 29.8118C125.42 29.8967 125.606 30.0212 125.764 30.1781C125.921 30.3351 126.046 30.5214 126.131 30.7264C126.216 30.9315 126.26 31.1512 126.26 31.3732V106.444C126.26 106.666 126.216 106.886 126.131 107.091C126.046 107.296 125.921 107.482 125.764 107.639C125.606 107.796 125.42 107.921 125.214 108.006C125.009 108.091 124.789 108.134 124.567 108.134H9.80002C9.35102 108.134 8.92041 107.956 8.60292 107.639C8.28543 107.322 8.10707 106.892 8.10707 106.444V31.3732C8.10707 30.9249 8.28543 30.4951 8.60292 30.1781C8.92041 29.8612 9.35102 29.6832 9.80002 29.6832Z" fill="white"/>
<path d="M57.3672 72.2188H49.6211L47.8633 77H46.3516L52.8086 59.9375H54.1797L60.6367 77H59.1367L57.3672 72.2188ZM50.0664 70.9883H56.9102L53.4883 61.6953L50.0664 70.9883ZM62.2656 70.543C62.2656 68.5742 62.7031 67.0078 63.5781 65.8438C64.4609 64.6719 65.6562 64.0859 67.1641 64.0859C68.875 64.0859 70.1797 64.7617 71.0781 66.1133V59H72.4727V77H71.1602L71.1016 75.3125C70.2031 76.5938 68.8828 77.2344 67.1406 77.2344C65.6797 77.2344 64.5 76.6484 63.6016 75.4766C62.7109 74.2969 62.2656 72.707 62.2656 70.707V70.543ZM63.6836 70.7891C63.6836 72.4062 64.0078 73.6836 64.6562 74.6211C65.3047 75.5508 66.2188 76.0156 67.3984 76.0156C69.125 76.0156 70.3516 75.2539 71.0781 73.7305V67.7773C70.3516 66.1289 69.1328 65.3047 67.4219 65.3047C66.2422 65.3047 65.3242 65.7695 64.668 66.6992C64.0117 67.6211 63.6836 68.9844 63.6836 70.7891ZM83.7578 73.7773C83.7578 73.082 83.4766 72.5234 82.9141 72.1016C82.3594 71.6797 81.5195 71.3516 80.3945 71.1172C79.2695 70.875 78.3945 70.6016 77.7695 70.2969C77.1523 69.9844 76.6914 69.6055 76.3867 69.1602C76.0898 68.7148 75.9414 68.1758 75.9414 67.543C75.9414 66.543 76.3594 65.7188 77.1953 65.0703C78.0312 64.4141 79.1016 64.0859 80.4062 64.0859C81.8203 64.0859 82.9531 64.4375 83.8047 65.1406C84.6641 65.8359 85.0938 66.7461 85.0938 67.8711H83.6875C83.6875 67.1289 83.375 66.5117 82.75 66.0195C82.1328 65.5273 81.3516 65.2812 80.4062 65.2812C79.4844 65.2812 78.7422 65.4883 78.1797 65.9023C77.625 66.3086 77.3477 66.8398 77.3477 67.4961C77.3477 68.1289 77.5781 68.6211 78.0391 68.9727C78.5078 69.3164 79.3555 69.6328 80.582 69.9219C81.8164 70.2109 82.7383 70.5195 83.3477 70.8477C83.9648 71.1758 84.4219 71.5703 84.7188 72.0312C85.0156 72.4922 85.1641 73.0508 85.1641 73.707C85.1641 74.7773 84.7305 75.6328 83.8633 76.2734C83.0039 76.9141 81.8789 77.2344 80.4883 77.2344C79.0117 77.2344 77.8125 76.8789 76.8906 76.168C75.9766 75.4492 75.5195 74.543 75.5195 73.4492H76.9258C76.9805 74.2695 77.3242 74.9102 77.957 75.3711C78.5977 75.8242 79.4414 76.0508 80.4883 76.0508C81.4648 76.0508 82.2539 75.8359 82.8555 75.4062C83.457 74.9766 83.7578 74.4336 83.7578 73.7773Z" fill="#FF4F4F"/>
<path d="M113.605 103.307C117.426 103.307 120.524 100.215 120.524 96.4003C120.524 92.5859 117.426 89.4938 113.605 89.4938C109.784 89.4938 106.687 92.5859 106.687 96.4003C106.687 100.215 109.784 103.307 113.605 103.307Z" fill="#FF4F4F"/>
<path d="M117.199 96.2765L111.684 93.0981C111.662 93.0855 111.638 93.0789 111.612 93.0789C111.587 93.0789 111.563 93.0855 111.541 93.0981C111.519 93.1106 111.501 93.1287 111.488 93.1504C111.476 93.1721 111.469 93.1968 111.469 93.2219V99.5788C111.469 99.6039 111.476 99.6286 111.488 99.6503C111.501 99.6721 111.519 99.6901 111.541 99.7026C111.563 99.7152 111.587 99.7218 111.612 99.7218C111.638 99.7218 111.662 99.7152 111.684 99.7026L117.199 96.5242C117.221 96.5116 117.239 96.4936 117.251 96.4718C117.264 96.4501 117.27 96.4254 117.27 96.4004C117.27 96.3753 117.264 96.3506 117.251 96.3289C117.239 96.3071 117.221 96.2891 117.199 96.2766L111.684 93.0981C111.662 93.0855 111.638 93.0789 111.612 93.0789C111.587 93.0789 111.563 93.0855 111.541 93.0981C111.519 93.1106 111.501 93.1287 111.488 93.1504C111.476 93.1721 111.469 93.1968 111.469 93.2219V99.5788C111.469 99.6039 111.476 99.6286 111.488 99.6503C111.501 99.6721 111.519 99.6901 111.541 99.7027C111.563 99.7152 111.587 99.7218 111.612 99.7218C111.638 99.7218 111.662 99.7152 111.684 99.7026L117.199 96.5242C117.221 96.5116 117.239 96.4936 117.251 96.4718C117.264 96.4501 117.27 96.4254 117.27 96.4004C117.27 96.3753 117.264 96.3506 117.251 96.3289C117.239 96.3071 117.221 96.2891 117.199 96.2765Z" fill="white"/>
</g>
<defs>
<clipPath id="clip0">
<rect width="193" height="116" fill="white"/>
</clipPath>
</defs>
</svg>
